<?xml version="1.0" standalone="no"?>
<!DOCTYPE svg PUBLIC "-//W3C//DTD SVG 20010904//EN"
 "http://www.w3.org/TR/2001/REC-SVG-20010904/DTD/svg10.dtd">
<svg version="1.0" xmlns="http://www.w3.org/2000/svg"
 width="1360.000000pt" height="1359.000000pt" viewBox="0 0 1360.000000 1359.000000"
 preserveAspectRatio="xMidYMid meet">

<g transform="translate(0.000000,1359.000000) scale(0.100000,-0.100000)"
fill="#000000" stroke="none">
<path d="M6420 12723 c-19 -1 -93 -8 -165 -14 -71 -5 -208 -21 -304 -35 -2167
-308 -3997 -1801 -4742 -3869 -410 -1140 -458 -2420 -134 -3591 277 -998 793
-1881 1534 -2623 l174 -173 1107 1108 c608 610 2496 2500 4194 4201 l3088
3091 -104 108 c-487 507 -1136 969 -1763 1257 -675 310 -1330 479 -2079 537
-116 9 -720 12 -806 3z m650 -783 c942 -54 1811 -342 2580 -855 171 -114 332
-234 337 -251 2 -5 -1609 -1654 -3579 -3663 l-3582 -3653 -18 24 c-94 117
-242 319 -311 425 -576 874 -868 1891 -844 2938 11 464 69 860 188 1284 205
726 568 1399 1069 1981 583 677 1380 1214 2230 1502 629 213 1287 305 1930
268z"/>
<path d="M7515 6084 c-2283 -2264 -4151 -4119 -4153 -4123 -4 -12 366 -252
534 -346 l52 -29 800 795 c441 437 2259 2243 4040 4014 l3239 3220 -19 39
c-48 94 -330 546 -341 546 -1 0 -1870 -1852 -4152 -4116z"/>
<path d="M8552 5047 c-2096 -2096 -3812 -3815 -3812 -3819 0 -18 612 -201 680
-202 34 -1 179 143 3598 3565 l3563 3567 -26 103 c-51 204 -166 572 -184 591
-3 4 -1722 -1708 -3819 -3805z"/>
<path d="M9545 4033 l-3169 -3158 115 -8 c120 -9 685 -2 755 9 39 6 186 151
2757 2723 l2716 2716 12 205 c11 206 5 647 -10 663 -4 4 -1433 -1414 -3176
-3150z"/>
<path d="M10551 3054 c-1036 -1037 -1881 -1887 -1878 -1890 5 -6 245 82 417
153 173 71 479 221 640 314 904 519 1642 1243 2180 2139 99 166 298 560 370
735 64 157 162 426 157 431 -2 2 -851 -844 -1886 -1882z"/>
</g>
</svg>
